<?xml version="1.0" standalone="no"?><!DOCTYPE svg PUBLIC "-//W3C//DTD SVG 1.1//EN" "http://www.w3.org/Graphics/SVG/1.1/DTD/svg11.dtd"><svg t="1749630914519" class="icon" viewBox="0 0 1024 1024" version="1.1" xmlns="http://www.w3.org/2000/svg" p-id="6408" xmlns:xlink="http://www.w3.org/1999/xlink" width="200" height="200"><path d="M777.984 597.6576c-43.1616-42.8544-94.9248-73.8816-151.3472-91.5456C692.8384 466.8416 737.28 394.7008 737.28 312.32c0-124.2112-101.0688-225.28-225.28-225.28S286.72 188.1088 286.72 312.32c0 87.1424 42.2912 158.3104 109.2096 195.9936-148.48 49.8176-256.1024 190.464-256.1024 355.072 0 18.2784 7.168 35.4816 20.1216 48.384 12.8512 12.7488 29.9008 19.7632 48.0256 19.7632h0.512l616.96-4.5056c34.816-0.256 63.1808-28.7744 63.1808-63.6416 0-100.5568-39.2704-194.9184-110.6432-265.728z m-263.424 16.64l33.4848 129.536-33.4848 40.3968-33.4848-40.3968 33.4848-129.536zM337.92 312.32c0-96 78.08-174.08 174.08-174.08s174.08 78.08 174.08 174.08-78.08 174.08-174.08 174.08c-102.5024 0-174.08-71.5776-174.08-174.08z m487.168 563.456l-616.96 4.5056h-0.1536c-4.5056 0-8.7552-1.7408-11.9296-4.9152-3.2256-3.2256-5.0176-7.4752-5.0176-12.032 0-166.2976 127.1808-304.3328 289.3312-321.3824l-52.1216 201.6768c-2.048 7.936-0.1536 16.4352 5.0688 22.7328l61.5424 74.24c4.864 5.888 12.0832 9.2672 19.712 9.2672s14.848-3.3792 19.712-9.2672l61.5424-74.24a25.69216 25.69216 0 0 0 5.0688-22.7328l-52.1216-201.6256c72.8576 7.68 140.3904 39.5776 193.1776 91.9552 61.5936 61.1328 95.488 142.592 95.488 229.376 0 6.8608-5.5296 12.3904-12.3392 12.4416z" p-id="6409"></path></svg>