<?xml version="1.0" standalone="no"?><!DOCTYPE svg PUBLIC "-//W3C//DTD SVG 1.1//EN" "http://www.w3.org/Graphics/SVG/1.1/DTD/svg11.dtd"><svg t="1749631237239" class="icon" viewBox="0 0 1024 1024" version="1.1" xmlns="http://www.w3.org/2000/svg" p-id="9330" xmlns:xlink="http://www.w3.org/1999/xlink" width="200" height="200"><path d="M927.592702 990.891262c-14.992373-67.640009-110.176509-209.195903-273.349314-266.376117a377.947265 377.947265 0 0 0 222.096317-348.659839A371.322728 371.322728 0 0 0 512.338834 0 370.974068 370.974068 0 0 0 148.337962 377.249946a377.947265 377.947265 0 0 0 222.096317 348.659838C207.261475 780.649379 112.077339 922.902593 96.387646 990.891262a27.544127 27.544127 0 0 0 4.881238 22.662889 25.452168 25.452168 0 0 0 20.222271 10.111136 25.800828 25.800828 0 0 0 25.103508-20.919591c15.689693-69.731968 147.134452-248.245805 364.698191-248.245805s348.659839 177.816518 364.698192 248.594465a26.498148 26.498148 0 0 0 11.505774 16.735672 24.754849 24.754849 0 0 0 19.524951 3.486599 27.195467 27.195467 0 0 0 19.524951-32.425365zM200.985598 377.249946v-4.183919a304.380039 304.380039 0 0 0 181.651776 58.226194 286.598387 286.598387 0 0 0 221.747657-111.571149 278.927871 278.927871 0 0 0 212.333842 128.655481 313.793855 313.793855 0 0 1-304.031379 252.429723A317.977773 317.977773 0 0 1 200.985598 377.249946z" fill="#666666" p-id="9331"></path></svg>